<?xml version="1.0" standalone="no"?><!DOCTYPE svg PUBLIC "-//W3C//DTD SVG 1.1//EN" "http://www.w3.org/Graphics/SVG/1.1/DTD/svg11.dtd"><svg class="icon" width="200px" height="200.00px" viewBox="0 0 1024 1024" version="1.1" xmlns="http://www.w3.org/2000/svg"><path d="M128 746.7a213.3 192 0 1 0 426.6 0 213.3 192 0 1 0-426.6 0Z" fill="#A51010" /><path d="M484.405311 755.873091a192 213.3 82.998 1 0 423.418373-52.004242 192 213.3 82.998 1 0-423.418373 52.004242Z" fill="#A51010" /><path d="M697.6 956.6c-45.7 0-90.4-13.2-129.7-38.6-53.5-34.8-90.3-88.3-103.6-150.7l50.1-10.6c10.4 49 39.3 91.1 81.4 118.4 42.1 27.3 92.2 36.6 141.3 26.2 49-10.4 91.1-39.3 118.4-81.4 27.3-42.1 36.6-92.2 26.2-141.3l50.1-10.6c13.3 62.4 1.4 126.3-33.3 179.8-34.8 53.5-88.3 90.3-150.7 103.6-16.7 3.4-33.5 5.2-50.2 5.2z" fill="#333333" /><path d="M489.4 787.5c-11.8 0-22.5-8.2-25-20.3-22.5-105.8 45.3-210.2 151.2-232.7 16.7-3.6 33.8-4.9 50.8-4.1 14.1 0.7 25 12.7 24.3 26.9-0.7 14.1-12.7 25-26.9 24.3-12.5-0.6-25.2 0.4-37.6 3-78.2 16.6-128.4 93.8-111.7 172.1 2.9 13.8-5.9 27.4-19.7 30.4-1.8 0.3-3.6 0.4-5.4 0.4z" fill="#333333" /><path d="M906.8 698.8c-11.8 0-22.5-8.2-25-20.3-8.1-37.9-30.4-70.4-62.9-91.5-32.5-21.1-71.3-28.3-109.2-20.2-11.5 2.4-22.6 6.2-33.1 11.3-12.7 6.1-28 0.8-34.2-11.9-6.1-12.7-0.8-28 11.9-34.2 14.1-6.8 29.2-12 44.7-15.3 51.3-10.9 103.7-1.2 147.7 27.4 44 28.6 74.2 72.5 85.1 123.8 2.9 13.8-5.9 27.4-19.7 30.4-1.8 0.4-3.6 0.5-5.3 0.5zM336.1 970.3c-63.8 0-123.8-24.9-169-70-45.1-45.1-70-105.1-70-169h51.2C148.3 834.8 232.5 919 336 919c67.7 0 130.5-36.7 163.7-95.8l44.6 25.1c-42.1 75.3-122 122-208.2 122z" fill="#333333" /><path d="M317.9 866.3m-25.6 0a25.6 25.6 0 1 0 51.2 0 25.6 25.6 0 1 0-51.2 0Z" fill="#333333" /><path d="M122.8 756.9c-14.1 0-25.6-11.5-25.6-25.6 0-108.2 88-196.3 196.3-196.3 17.1 0 34.1 2.2 50.5 6.6 13.7 3.6 21.8 17.7 18.2 31.3-3.6 13.7-17.7 21.8-31.3 18.2-12.1-3.2-24.7-4.9-37.4-4.9-80 0-145.1 65.1-145.1 145.1 0 14.2-11.5 25.6-25.6 25.6z" fill="#333333" /><path d="M512.8 651.2c-7.6 0-15-3.3-20.1-9.7-27.7-35.1-69.2-55.2-113.9-55.2-11.7 0-23.4 1.4-34.7 4.2-13.7 3.4-27.6-5-31-18.8s5-27.6 18.8-31c15.3-3.7 31-5.6 46.9-5.6 60.4 0 116.6 27.2 154.1 74.7 8.8 11.1 6.9 27.2-4.2 36-4.7 3.6-10.3 5.4-15.9 5.4z" fill="#333333" /><path d="M343.6 567.8h-1.4c-14.1-0.7-25-12.8-24.2-26.9 3.3-63.8 19.1-125.1 46.8-182.2 26.8-55.1 63.5-103.9 109.2-145s98.1-72.6 155.6-93.5c59.6-21.6 122.2-30.9 186-27.5 14.1 0.7 25 12.8 24.2 26.9s-12.8 25-26.9 24.2c-57-3-112.8 5.3-165.9 24.5-51.3 18.6-98 46.7-138.8 83.4s-73.6 80.2-97.4 129.4c-24.7 50.8-38.8 105.5-41.7 162.4-0.7 13.7-12 24.3-25.5 24.3z" fill="#333333" /><path d="M652.9 568.4c-9.6 0-18.9-5.5-23.2-14.8-31.8-68.3-46.7-140.8-44.2-215.6 2.4-71.3 21.3-142.4 54.6-205.7 6.6-12.5 22.1-17.3 34.6-10.7 12.5 6.6 17.3 22.1 10.7 34.6-29.8 56.5-46.6 119.9-48.8 183.5-2.2 66.7 11 131.3 39.4 192.3 6 12.8 0.4 28-12.4 34-3.4 1.7-7.1 2.4-10.7 2.4z" fill="#333333" /><path d="M902 295.7c-8.8 6.9-21.1 6.2-33.1 2.3-16.4-5.4-33-17.6-46.5-34.8-17-21.7-29.4-61.5-38.6-118.7 53.2 22.8 88.8 44.4 105.8 66.1 13.4 17.2 21.3 36.3 22.6 53.5 1 12.6-1.4 24.7-10.2 31.6z" fill="#6EC363" /><path d="M885.4 322.3c-6.8 0-14.5-1.2-23.2-4.1-20.7-6.8-40.8-21.7-56.6-42-19-24.4-32.6-65.2-42.8-128.4l-6.2-38.2 35.6 15.2c58.9 25.2 95.2 48.3 114.2 72.6 15.8 20.2 25.4 43.3 27 65 2.1 27.9-8.8 42.6-18.4 50-6.2 5.1-15.9 9.9-29.6 9.9z m-72.8-141c7.5 32.6 16.4 55.6 26.6 68.7 10.5 13.4 23.8 23.5 36.3 27.7 7.6 2.5 12.1 2.1 13.3 1.2 1.2-0.9 2.7-5.2 2.1-13.2-1-13.2-7.6-28.5-18.1-42-10.2-13.1-30.4-27.3-60.2-42.4zM258.3 862.6c-3.1 0-6.2-0.5-9.2-1.7-57.1-21.9-85.7-86.2-63.8-143.3 5.1-13.2 19.9-19.8 33.1-14.7 13.2 5.1 19.8 19.9 14.7 33.1-11.8 30.8 3.6 65.4 34.4 77.2 13.2 5.1 19.8 19.9 14.7 33.1-4 10-13.7 16.3-23.9 16.3z" fill="#333333" /></svg>